<svg xmlns="http://www.w3.org/2000/svg" xml:space="preserve" width="500" height="117" data-id="lg_oOpS6k6bVFCJ8HwgnR" data-version="1" viewBox="0 0 1500 117"><g data-padding="20"><g transform="translate(10 2.086)scale(.96435)"><rect width="426.321" height="114.13" x="165.293" y="-408.519" fill="none" rx="0" ry="0" transform="matrix(.97 0 0 .97 473.83 402.41)"/><path fill="#ff5722" d="m679.028 28.994.59.786-.59 6.072-10.971-.592h-6.363l-.301 36.938.3 19.594h-7.934l.582-18.905-.485-37.627h-6.373l-11.165.592-.494-.786.59-6.072Zm30.778 0 20.962 62.798h-8.032l-1.465-6.266-3.53-10.777-14.104-.3-12.736.3-3.822 10.38-1.572 6.663h-7.837l23.028-62.798Zm-5.49 39.285 11.27-.194-10.194-30.962h-.68l-11.367 30.962Zm54.766-39.78q6.76 0 14.007 2.94l-1.271 7.546-1.368.388q-2.842-2.153-6.023-3.327-3.192-1.174-6.325-1.174-3.628 0-6.314 1.465-2.697 1.474-4.113 3.822-1.426 2.357-1.426 4.898 0 2.648 1.62 4.656 1.61 2.008 4.064 3.483 2.444 1.464 6.664 3.52 5.286 2.455 8.516 4.56 3.24 2.105 5.54 5.335 2.298 3.24 2.298 7.837 0 4.9-2.638 9.012-2.648 4.122-7.45 6.567-4.801 2.454-10.97 2.454-4.113 0-8.575-1.135-4.453-1.125-8.275-3.279l.98-8.03 1.077-.496q3.424 3.337 7.595 4.947 4.16 1.62 7.983 1.62 3.715 0 6.606-1.465 2.89-1.474 4.413-3.919 1.513-2.454 1.513-5.199 0-4.113-3.133-6.606-3.133-2.502-9.496-5.44-5.2-2.552-8.332-4.56t-5.384-5.19q-2.26-3.18-2.26-7.789 0-4.8 2.6-8.817t7.246-6.315q4.656-2.309 10.63-2.309m63.865.495.592.786-.592 6.072-10.97-.592h-6.364l-.3 36.938.3 19.594h-7.934l.582-18.905-.485-37.627H791.4l-11.165.592-.494-.786.59-6.072Zm31.36 40.071-.096 4.404.194 18.323h-7.731l.388-18.323-.097-4.113-19.885-40.362h8.42l1.27 3.521 13.716 28.218h.689l15.093-28.014 1.465-3.725h8.225Zm68.386-40.07.59.785-.59 6.072-10.97-.592h-6.374l-.29 36.938.29 19.594h-7.934l.59-18.905-.493-37.627h-6.364l-11.164.592-.495-.786.592-6.072Zm30.768 0 20.962 62.797h-8.032l-1.474-6.266-3.521-10.777-14.114-.3-12.736.3-3.822 10.38-1.561 6.663h-7.838l23.018-62.798Zm-5.49 39.284 11.262-.194-10.185-30.962h-.69L937 68.085Zm56.92-39.382q9.205 0 14.21 4.753 4.996 4.744 4.996 13.668 0 10.476-6.228 16.45-6.218 5.976-17.188 5.976h-7.45v2.454l.398 19.594h-7.944l.494-18.905-.494-43.893Zm-1.271 34.484q6.072-.98 9.254-4.899t3.18-10.485q0-12.145-12.93-12.64l-9.495.301-.3 27.53Z"/><path fill="#4caf50" d="M564.143 28.233q.013-.12 0 0m-.026.146.026-.132Zm-.027.12.027-.133Zm2.913 12.037c.066-.36.026-.186 0 0M546.52.316c0-.293 0-.146 0 0m7.049 3.245c.106-.705.053-.346 0 0m-6.717 85.507c-10.44 0-54.556-2.78-56.432-2.9a3.857 3.857 0 0 1 .492-7.687c.453.026 45.752 2.886 55.94 2.886 10.24 0 55.594-1.596 56.046-1.596l.133-.014a3.858 3.858 0 0 1 .133 7.714c-1.862.054-45.925 1.596-56.312 1.596m-55.886-31.24a3.857 3.857 0 0 1-.48-7.689c.307-.026 30.418-3.777 56.34-3.777s56.392 3.738 56.684 3.777a3.857 3.857 0 0 1-.944 7.648c-.306-.027-30.324-3.724-55.74-3.724-25.443 0-55.09 3.697-55.382 3.724Zm113.355 7.806h-.133c-.465-.027-45.805-2.886-56.06-2.886s-55.633 1.582-56.1 1.596a2.25 2.25 0 0 1-.158-4.496c.465 0 45.912-1.596 56.259-1.596 10.387 0 54.464 2.78 56.339 2.887a2.249 2.249 0 0 1-.147 4.495M491.95 68.52c1.024-1.01 34.872-2.567 54.676-2.567s55.554 1.716 56.405 2.567c.865.864.745 6.317 0 7.062-.744.758-38.064 2.58-54.343 2.58s-55.82-2.088-56.738-3.005c-.918-.918-1.011-5.613 0-6.637m109.645 30.815c-1.463-.638-25.084 1.596-41.762 2.793a109 109 0 0 1-9.27 14.364c11.49-.372 21.945-1.17 26.626-1.596 6.584-.585 20.92-2.394 22.318-4.495 1.383-2.088 4.056-10.214 2.088-11.079m-71.993 2.421c-16.013-1.463-36.455-3.67-37.64-2.394-1.728 1.81-.863 9.31 0 10.108.852.798 28.25 7.063 44.45 7.222h3.47a112 112 0 0 1-10.28-14.936m-3.95-8.75a3469 3469 0 0 1-34.194-1.996 2.253 2.253 0 0 0-.293 4.495c1.21.067 20.083 1.25 36.07 2.09-1.038-2.116-1.636-3.765-1.583-4.59m78.03-.692h-.092c-.32 0-23.142.798-40.1 1.277a20 20 0 0 1-1.675 4.535c17.143-.452 41.602-1.316 41.935-1.33a2.248 2.248 0 0 0-.067-4.482"/><path fill="#4caf50" d="M561.683 91.262c1.676 1.702-12.33 25.43-16.16 25.43s-18.94-23.635-17.143-25.43c1.795-1.796 31.614-1.69 33.303 0M547.81 7.112c-43.225-.438-58.254 35.565-55.967 38.08 2.3 2.526 42.002-3.473 55.967-3.473s52.003 4.323 55.98 3.472c3.95-.85-12.742-37.64-55.98-38.078m-35.538 27.93a2.062 2.062 0 1 1 0-4.123 2.062 2.062 0 0 1 0 4.123m13.008-11.04a2.062 2.062 0 1 1 0-4.122 2.062 2.062 0 0 1 0 4.123m6.503 11.04a2.062 2.062 0 1 1 0-4.124 2.062 2.062 0 0 1 0 4.123m7.794-17.556a2.062 2.062 0 1 1 0-4.123 2.062 2.062 0 0 1 0 4.123m5.852 11.052a2.062 2.062 0 1 1 0-4.123 2.062 2.062 0 0 1 0 4.123m18.208 9.762a2.062 2.062 0 1 1 0-4.123 2.062 2.062 0 0 1 0 4.123m.638-16.252a2.062 2.062 0 1 1 0-4.123 2.062 2.062 0 0 1 0 4.123m16.904 9.75a2.062 2.062 0 1 1 0-4.124 2.062 2.062 0 0 1 0 4.123"/></g><path fill="transparent" stroke="transparent" d="M469.5 0h561v117h-561z"/></g></svg>